<svg xmlns="http://www.w3.org/2000/svg" viewBox="0 0 64 64">
  <g fill="none" stroke="currentColor" stroke-width="4" stroke-linecap="round" stroke-linejoin="round">
    <path d="M44 36v6a6 6 0 0 1-6 6H14a6 6 0 0 1-6-6V22a6 6 0 0 1 6-6h22"/>
    <path d="M16 26h14" opacity=".4"/>
    <path d="M16 34h4" opacity=".4"/>
    <path d="M25.5 40.5l2-8L45 15a4.243 4.243 0 0 1 6 6L33.5 38.5l-8 2z"/>
  </g>
  <path fill="var(--icon-color-accent, #ff8700)" d="M13 4l1.4 3.6L18 9l-3.6 1.4L13 14l-1.4-3.6L8 9l3.6-1.4z"/>
</svg>
